<svg width="32" height="32" viewBox="0 0 32 32" fill="none" xmlns="http://www.w3.org/2000/svg">
<path fill-rule="evenodd" clip-rule="evenodd" d="M15.9998 26.6666C21.8909 26.6666 26.6665 21.891 26.6665 16C26.6665 10.1089 21.8909 5.33329 15.9998 5.33329C10.1088 5.33329 5.33317 10.1089 5.33317 16C5.33317 21.891 10.1088 26.6666 15.9998 26.6666ZM15.9998 29.3333C23.3636 29.3333 29.3332 23.3638 29.3332 16C29.3332 8.63616 23.3636 2.66663 15.9998 2.66663C8.63604 2.66663 2.6665 8.63616 2.6665 16C2.6665 23.3638 8.63604 29.3333 15.9998 29.3333Z" fill="#B1B5C4"/>
<path fill-rule="evenodd" clip-rule="evenodd" d="M11.057 11.0572C11.5777 10.5365 12.4219 10.5365 12.9426 11.0572L15.9998 14.1143L19.057 11.0572C19.5777 10.5365 20.4219 10.5365 20.9426 11.0572C21.4633 11.5778 21.4633 12.4221 20.9426 12.9428L17.8855 16L20.9426 19.0572C21.4633 19.5778 21.4633 20.4221 20.9426 20.9428C20.4219 21.4635 19.5777 21.4635 19.057 20.9428L15.9998 17.8856L12.9426 20.9428C12.4219 21.4635 11.5777 21.4635 11.057 20.9428C10.5363 20.4221 10.5363 19.5778 11.057 19.0572L14.1142 16L11.057 12.9428C10.5363 12.4221 10.5363 11.5778 11.057 11.0572Z" fill="#B1B5C4"/>
</svg>
